<svg width="261" height="34" viewBox="0 0 261 34" fill="none" xmlns="http://www.w3.org/2000/svg">
<mask id="mask0_7_14099" style="mask-type:luminance" maskUnits="userSpaceOnUse" x="0" y="0" width="261" height="34">
<path d="M260.582 0.0671387H0.627319V33.8926H260.582V0.0671387Z" fill="white"/>
</mask>
<g mask="url(#mask0_7_14099)">
<path d="M34.0217 33.6276H38.0673V0.0671387H32.8783C32.8783 0.0671387 30.9434 10.4885 28.393 17.7306C25.4908 14.2862 20.4777 11.5484 15.4647 11.5484C4.38316 11.5484 0.953186 18.2604 0.953186 22.9412C0.953186 30.4481 8.51674 34.3342 16.1682 33.451C24.875 32.4795 28.393 25.2374 29.3604 23.3828C32.2628 27.0038 34.0217 33.6276 34.0217 33.6276ZM34.8133 2.98157H34.9891V29.4766C34.4614 26.9155 33.3181 23.8244 30.6796 20.115C31.8229 16.5824 33.494 10.7535 34.8133 2.98157ZM15.6405 30.6249C10.0998 31.4196 3.94343 28.5052 3.94343 22.9412C3.94343 19.5852 6.58187 14.2862 14.937 14.2862C21.7969 14.2862 25.1388 17.8189 27.2497 20.5567C25.9304 25.4142 21.709 29.6532 15.6405 30.6249ZM43.3439 33.6274V10.1352H46.5099L51.611 24.2658H51.6989V10.1352H55.0409V33.6274H51.8749L46.7738 19.4967H46.6858V33.6274H43.3439ZM63.5722 33.6274V13.3145H59.7025V10.1352H70.784V13.3145H66.9143V33.6274H63.5722ZM84.9439 33.6274V10.1352H89.9563C91.8917 10.1352 93.3869 10.665 94.3542 11.7249C95.3216 12.7847 95.8488 14.2859 95.8488 16.229V27.2685C95.8488 29.4765 95.3216 31.0663 94.2663 32.126C93.2104 33.1858 91.6272 33.7157 89.6927 33.7157H84.9439V33.6274ZM88.3738 13.3145V30.5363H89.9563C90.9243 30.5363 91.5394 30.2714 91.9796 29.8297C92.331 29.3882 92.5953 28.5934 92.5953 27.6219V16.229C92.5953 15.3459 92.4188 14.551 92.0673 14.1093C91.7159 13.5795 91.0122 13.3145 90.0449 13.3145H88.3738ZM100.951 33.6274V10.1352H110.889V13.3145H104.293V20.2032H110.097V23.3826H104.293V30.2714H110.889V33.6274H100.951ZM128.038 10.1352L123.2 33.6274H120.21L115.461 10.1352H118.979L121.706 26.562H121.794L124.432 10.1352H128.038ZM133.052 33.6274V10.1352H143.078V13.3145H136.394V20.2032H142.199V23.3826H136.394V30.2714H143.078V33.6274H133.052ZM148.794 33.6274V10.1352H152.136V30.2714H158.82V33.6274H148.794ZM163.042 15.6992C163.042 14.7277 163.217 13.9328 163.569 13.2263C163.921 12.5199 164.36 11.9016 164.888 11.3717C165.417 10.9301 166.031 10.5768 166.648 10.3119C167.351 10.047 167.967 9.95869 168.67 9.95869C169.373 9.95869 169.99 10.047 170.693 10.3119C171.397 10.5768 172.012 10.9301 172.539 11.3717C173.068 11.8133 173.507 12.4316 173.86 13.2263C174.21 13.9328 174.387 14.8161 174.387 15.6992V28.152C174.387 29.1234 174.21 30.0066 173.86 30.7132C173.507 31.4196 173.068 32.0379 172.539 32.4795C172.012 32.921 171.397 33.3627 170.693 33.5393C169.99 33.8042 169.373 33.8925 168.67 33.8925C167.967 33.8925 167.351 33.8042 166.648 33.5393C165.944 33.2742 165.417 32.921 164.888 32.4795C164.36 32.0379 163.921 31.4196 163.569 30.7132C163.217 30.0066 163.042 29.1234 163.042 28.152V15.6992ZM166.384 28.0637C166.384 28.8584 166.648 29.4766 167.088 29.83C167.527 30.1832 168.055 30.4481 168.67 30.4481C169.286 30.4481 169.813 30.2715 170.253 29.83C170.693 29.4766 170.957 28.8584 170.957 28.0637V15.6992C170.957 14.9045 170.693 14.2862 170.253 13.9328C169.813 13.5796 169.286 13.3147 168.67 13.3147C168.055 13.3147 167.527 13.4913 167.088 13.9328C166.648 14.2862 166.384 14.9045 166.384 15.6992V28.0637ZM180.28 33.6274V10.1352H185.293C186.172 10.1352 187.052 10.2235 187.756 10.4884C188.46 10.7533 189.074 11.1949 189.69 11.8132C190.218 12.4314 190.658 13.1379 190.833 14.021C191.01 14.8159 191.186 15.964 191.186 17.3771C191.186 18.4369 191.098 19.3201 191.01 20.0266C190.921 20.7331 190.658 21.4397 190.218 22.0579C189.777 22.8527 189.162 23.471 188.37 23.8242C187.579 24.2658 186.612 24.4424 185.381 24.4424H183.71V33.6274H180.28ZM183.622 13.3145V21.263H185.205C185.908 21.263 186.436 21.1747 186.789 20.9981C187.139 20.8214 187.403 20.5564 187.579 20.2032C187.756 19.85 187.843 19.4967 187.931 18.9668C187.931 18.5252 188.019 17.9069 188.019 17.3771V15.7874C188.019 15.2576 187.931 14.8159 187.756 14.4627C187.579 14.1093 187.316 13.8444 186.964 13.5795C186.612 13.4028 186.085 13.3145 185.468 13.3145H183.622ZM196.198 33.6274V10.1352H199.453L203.762 22.5878L208.071 10.1352H211.325V33.6274H207.983V19.3201H207.895L204.553 29.4765H202.882L199.628 19.3201H199.54V33.6274H196.198ZM217.305 33.6274V10.1352H227.332V13.3145H220.648V20.2032H226.452V23.3826H220.648V30.2714H227.332V33.6274H217.305ZM232.697 33.6274V10.1352H235.862L240.963 24.2658H241.051V10.1352H244.393V33.6274H241.227L236.039 19.4967V33.6274H232.697ZM252.925 33.6274V13.3145H249.056V10.1352H260.137V13.3145H256.267V33.6274H252.925Z" fill="#999999"/>
</g>
</svg>
